# xmcd
#
# Track frame offsets:
#	151
#	14354
#	28676
#	40841
#	54959
#	67496
#	79756
#	93636
#	107984
#	122227
#	137246
#	149074
#	162626
#	177096
#	191034
#	204704
#	218051
#	232229
#	245266
#	258144
#	271646
#	284604
#	298481
#	310881
#
# Disc length: 4316 seconds
#
# Revision: 0
# Processed by: cddbd v1.5.2PL0 Copyright (c) Steve Scherf et al.
# Submitted via: dBpowerAMP V4.0
#
DISCID=8310da18
DTITLE=Various Artist - Boogie Woogie and Berrelhouse Piano Vol 2
DYEAR=1900
DGENRE=
TTITLE0=Bob Call, James Wiggins - Keep a Knockin'
TTITLE1=Bob Call, James Wiggins - Evil Woman Blues
TTITLE2=Bob Call - 31 Blues
TTITLE3=Raymond Barrow - Walking Blues
TTITLE4=Blind Leroy Garnett - My Lovin' Blues
TTITLE5=Blind Leroy Garnett - Weary-Heart Blues
TTITLE6=Blind Leroy Garnett - Chain 'Em Down
TTITLE7=Blind Leroy Garnett - Louisiana Glide
TTITLE8=Blind Leroy Garnett - Fourty-Four Blues
TTITLE9=Blind Leroy Garnett - Frisco Bound
TTITLE10=Blind Leroy Garnett - What Do You Think This Is?
TTITLE11=Blind Leroy Garnett - Blue And Disgusted
TTITLE12=James Wiggins - Corina,Corina
TTITLE13=James Wiggins - Gotta Shave 'Em Dry
TTITLE14=Romeo Nelson - Head Rag Hop
TTITLE15=Romeo Nelson - Gettin 'Dirty Just Shakin' That Thing
TTITLE16=Romeo Nelson - Dyin' Rider Blues
TTITLE17=Romeo Nelson - 1129 Blues ( The Midnight Special )
TTITLE18=Black Gal Makes Thunder
TTITLE19=Corn Trimmer Blues
TTITLE20=Piano Kid Edwards - Gamblin' Man's Prayer Blues
TTITLE21=Piano Kid Edwards - Hard Luck Gamblin' Man
TTITLE22=Piano Kid Edwards - Piano Kid Special
TTITLE23=Piano Kid Edwards - Give Us Another Jug
EXTD=
EXTT0=
EXTT1=
EXTT2=
EXTT3=
EXTT4=
EXTT5=
EXTT6=
EXTT7=
EXTT8=
EXTT9=
EXTT10=
EXTT11=
EXTT12=
EXTT13=
EXTT14=
EXTT15=
EXTT16=
EXTT17=
EXTT18=
EXTT19=
EXTT20=
EXTT21=
EXTT22=
EXTT23=
PLAYORDER=
